<?xml version="1.0" encoding="iso-8859-1"?>
<!-- Generator: Adobe Illustrator 21.0.2, SVG Export Plug-In . SVG Version: 6.00 Build 0)  -->
<svg xmlns="http://www.w3.org/2000/svg" xmlns:xlink="http://www.w3.org/1999/xlink" version="1.1" id="Layer_1" x="0px" y="0px" viewBox="0 0 40 40" style="enable-background:new 0 0 40 40;" xml:space="preserve">
<path style="fill:#4788C7;" d="M7,39H5c-0.552,0-1-0.448-1-1v-1h4v1C8,38.552,7.552,39,7,39z"/>
<path style="fill:#4788C7;" d="M35,39h-2c-0.552,0-1-0.448-1-1v-1h4v1C36,38.552,35.552,39,35,39z"/>
<g>
	<path style="fill:#DFF0FE;" d="M3,37.5c-0.275,0-0.5-0.224-0.5-0.5V5c0-1.378,1.121-2.5,2.5-2.5h30c1.379,0,2.5,1.122,2.5,2.5v32   c0,0.276-0.225,0.5-0.5,0.5H3z"/>
	<path style="fill:#4788C7;" d="M35,3c1.103,0,2,0.897,2,2v32H3V5c0-1.103,0.897-2,2-2H35 M35,2H5C3.343,2,2,3.343,2,5v32   c0,0.552,0.448,1,1,1h34c0.552,0,1-0.448,1-1V5C38,3.343,36.657,2,35,2L35,2z"/>
</g>
<line style="fill:#DFF0FE;stroke:#4788C7;stroke-miterlimit:10;" x1="2" y1="11.5" x2="38" y2="11.5"/>
<g>
	<circle style="fill:#B6DCFE;" cx="7" cy="7" r="1.5"/>
	<g>
		<path style="fill:#4788C7;" d="M7,6c0.551,0,1,0.449,1,1S7.551,8,7,8S6,7.551,6,7S6.449,6,7,6 M7,5C5.895,5,5,5.895,5,7    s0.895,2,2,2s2-0.895,2-2S8.105,5,7,5L7,5z"/>
	</g>
</g>
<g>
	<circle style="fill:#98CCFD;" cx="33" cy="7" r="1.5"/>
	<g>
		<path style="fill:#4788C7;" d="M33,6c0.551,0,1,0.449,1,1s-0.449,1-1,1s-1-0.449-1-1S32.449,6,33,6 M33,5c-1.105,0-2,0.895-2,2    s0.895,2,2,2s2-0.895,2-2S34.105,5,33,5L33,5z"/>
	</g>
</g>
<g>
	<circle style="fill:#98CCFD;" cx="28" cy="7" r="1.5"/>
	<g>
		<path style="fill:#4788C7;" d="M28,6c0.551,0,1,0.449,1,1s-0.449,1-1,1s-1-0.449-1-1S27.449,6,28,6 M28,5c-1.105,0-2,0.895-2,2    s0.895,2,2,2s2-0.895,2-2S29.105,5,28,5L28,5z"/>
	</g>
</g>
<g>
	<rect x="6" y="15" style="fill:#98CCFD;" width="28" height="18"/>
</g>
<rect x="9" y="30" style="fill:#FFFFFF;" width="7" height="1"/>
<path style="fill:#FFFFFF;" d="M20,31L20,31l0-14h0c1.657,0,3,1.343,3,3v8C23,29.657,21.657,31,20,31z"/>
<path style="fill:#FFFFFF;" d="M24,31L24,31l0-14h0c1.657,0,3,1.343,3,3v8C27,29.657,25.657,31,24,31z"/>
<path style="fill:#FFFFFF;" d="M28,31L28,31l0-11h0c1.657,0,3,1.343,3,3v5C31,29.657,29.657,31,28,31z"/>
<path style="fill:#FFFFFF;" d="M12.5,28L12.5,28C10.567,28,9,26.433,9,24.5V19h7v5.5C16,26.433,14.433,28,12.5,28z"/>
<line style="fill:none;stroke:#FFFFFF;stroke-miterlimit:10;" x1="12.5" y1="30.308" x2="12.5" y2="23.385"/>
</svg>
